<?xml version="1.0" encoding="UTF-8"?>
<svg id="Layer_2" data-name="Layer 2" xmlns="http://www.w3.org/2000/svg" viewBox="0 0 1022.06 14.19">
  <defs>
    <style>
      .cls-1 {
        fill: #10086b;
      }
    </style>
  </defs>
  <g id="Layer_1-2" data-name="Layer 1">
    <g>
      <g>
        <g>
          <rect class="cls-1" y="0" width="7.19" height="14.19"/>
          <rect class="cls-1" x="12.01" y="0" width="6.5" height="14.19"/>
          <rect class="cls-1" x="23.57" y="0" width="6.5" height="14.19"/>
          <rect class="cls-1" x="34.88" y="0" width="6.5" height="14.19"/>
          <rect class="cls-1" x="46.69" y="0" width="6.5" height="14.19"/>
          <rect class="cls-1" x="58" y="0" width="6.5" height="14.19"/>
          <rect class="cls-1" x="69.56" y="0" width="6.5" height="14.19"/>
          <rect class="cls-1" x="80.88" y="0" width="6.5" height="14.19"/>
          <rect class="cls-1" x="92.77" y="0" width="6.5" height="14.19"/>
          <rect class="cls-1" x="104.08" y="0" width="6.5" height="14.19"/>
          <rect class="cls-1" x="115.64" y="0" width="6.5" height="14.19"/>
          <rect class="cls-1" x="126.96" y="0" width="6.5" height="14.19"/>
          <rect class="cls-1" x="138.76" y="0" width="6.5" height="14.19"/>
          <rect class="cls-1" x="150.08" y="0" width="6.5" height="14.19"/>
          <rect class="cls-1" x="161.64" y="0" width="6.5" height="14.19"/>
          <rect class="cls-1" x="172.96" y="0" width="6.5" height="14.19"/>
          <rect class="cls-1" x="184.01" y="0" width="6.5" height="14.19"/>
          <rect class="cls-1" x="195.33" y="0" width="6.5" height="14.19"/>
          <rect class="cls-1" x="207.13" y="0" width="6.5" height="14.19"/>
          <rect class="cls-1" x="218.45" y="0" width="6.5" height="14.19"/>
          <rect class="cls-1" x="230.01" y="0" width="6.5" height="14.19"/>
          <rect class="cls-1" x="241.33" y="0" width="6.5" height="14.19"/>
        </g>
        <g>
          <rect class="cls-1" x="253.74" y="0" width="7.19" height="14.19"/>
          <rect class="cls-1" x="265.74" y="0" width="6.5" height="14.19"/>
          <rect class="cls-1" x="277.3" y="0" width="6.5" height="14.19"/>
          <rect class="cls-1" x="288.62" y="0" width="6.5" height="14.19"/>
          <rect class="cls-1" x="300.42" y="0" width="6.5" height="14.19"/>
          <rect class="cls-1" x="311.74" y="0" width="6.5" height="14.19"/>
          <rect class="cls-1" x="323.3" y="0" width="6.5" height="14.19"/>
          <rect class="cls-1" x="334.62" y="0" width="6.5" height="14.19"/>
          <rect class="cls-1" x="346.5" y="0" width="6.5" height="14.19"/>
          <rect class="cls-1" x="357.82" y="0" width="6.5" height="14.19"/>
          <rect class="cls-1" x="369.38" y="0" width="6.5" height="14.19"/>
          <rect class="cls-1" x="380.7" y="0" width="6.5" height="14.19"/>
          <rect class="cls-1" x="392.5" y="0" width="6.5" height="14.19"/>
          <rect class="cls-1" x="403.82" y="0" width="6.5" height="14.19"/>
          <rect class="cls-1" x="415.38" y="0" width="6.5" height="14.19"/>
          <rect class="cls-1" x="426.7" y="0" width="6.5" height="14.19"/>
          <rect class="cls-1" x="437.75" y="0" width="6.5" height="14.19"/>
          <rect class="cls-1" x="449.07" y="0" width="6.5" height="14.19"/>
          <rect class="cls-1" x="460.87" y="0" width="6.5" height="14.19"/>
          <rect class="cls-1" x="472.19" y="0" width="6.5" height="14.19"/>
          <rect class="cls-1" x="483.75" y="0" width="6.5" height="14.19"/>
          <rect class="cls-1" x="495.07" y="0" width="6.5" height="14.19"/>
        </g>
        <rect class="cls-1" x="507.83" y="0" width="7.19" height="14.19"/>
        <rect class="cls-1" x="519.83" y="0" width="6.5" height="14.19"/>
        <rect class="cls-1" x="531.39" y="0" width="6.5" height="14.19"/>
        <rect class="cls-1" x="542.71" y="0" width="6.5" height="14.19"/>
        <rect class="cls-1" x="554.51" y="0" width="6.5" height="14.19"/>
        <rect class="cls-1" x="565.83" y="0" width="6.5" height="14.19"/>
        <rect class="cls-1" x="577.39" y="0" width="6.5" height="14.19"/>
        <rect class="cls-1" x="588.71" y="0" width="6.5" height="14.19"/>
        <rect class="cls-1" x="600.59" y="0" width="6.5" height="14.19"/>
        <rect class="cls-1" x="611.91" y="0" width="6.5" height="14.19"/>
        <rect class="cls-1" x="623.47" y="0" width="6.5" height="14.19"/>
        <rect class="cls-1" x="634.79" y="0" width="6.5" height="14.19"/>
        <rect class="cls-1" x="646.59" y="0" width="6.5" height="14.19"/>
        <rect class="cls-1" x="657.91" y="0" width="6.5" height="14.19"/>
        <rect class="cls-1" x="669.47" y="0" width="6.5" height="14.19"/>
        <rect class="cls-1" x="680.79" y="0" width="6.5" height="14.19"/>
        <rect class="cls-1" x="691.84" y="0" width="6.5" height="14.19"/>
      </g>
      <g>
        <rect class="cls-1" x="703.81" width="7.19" height="14.19"/>
        <rect class="cls-1" x="715.82" width="6.5" height="14.19"/>
        <rect class="cls-1" x="727.37" width="6.5" height="14.19"/>
        <rect class="cls-1" x="738.69" width="6.5" height="14.19"/>
        <rect class="cls-1" x="750.49" width="6.5" height="14.19"/>
        <rect class="cls-1" x="761.81" width="6.5" height="14.19"/>
        <rect class="cls-1" x="773.37" width="6.5" height="14.19"/>
        <rect class="cls-1" x="784.69" width="6.5" height="14.19"/>
        <rect class="cls-1" x="796.57" width="6.5" height="14.19"/>
        <rect class="cls-1" x="807.89" width="6.5" height="14.19"/>
        <rect class="cls-1" x="819.45" width="6.5" height="14.19"/>
        <rect class="cls-1" x="830.77" width="6.5" height="14.19"/>
        <rect class="cls-1" x="842.57" width="6.5" height="14.19"/>
        <rect class="cls-1" x="853.89" width="6.5" height="14.19"/>
        <rect class="cls-1" x="865.45" width="6.5" height="14.19"/>
        <rect class="cls-1" x="876.77" width="6.5" height="14.19"/>
        <rect class="cls-1" x="887.82" width="6.5" height="14.19"/>
        <rect class="cls-1" x="899.14" width="6.5" height="14.19"/>
        <rect class="cls-1" x="910.94" width="6.5" height="14.19"/>
        <rect class="cls-1" x="922.26" width="6.5" height="14.19"/>
        <rect class="cls-1" x="933.82" width="6.5" height="14.19"/>
        <rect class="cls-1" x="945.14" width="6.5" height="14.19"/>
      </g>
      <rect class="cls-1" x="957.55" width="7.19" height="14.19"/>
      <rect class="cls-1" x="969.55" width="6.5" height="14.19"/>
      <rect class="cls-1" x="981.11" width="6.5" height="14.19"/>
      <rect class="cls-1" x="992.43" width="6.5" height="14.19"/>
      <rect class="cls-1" x="1004.23" width="6.5" height="14.19"/>
      <rect class="cls-1" x="1015.55" width="6.5" height="14.19"/>
    </g>
  </g>
</svg>