<?xml version="1.0" encoding="UTF-8"?>
<svg id="Layer_2" data-name="Layer 2" xmlns="http://www.w3.org/2000/svg" viewBox="0 0 2024.56 1069.32">
  <defs>
    <style>
      .cls-1, .cls-2, .cls-3 {
        fill: #fff;
      }

      .cls-2 {
        font-size: 205.96px;
        letter-spacing: .4em;
      }

      .cls-2, .cls-3 {
        font-family: ReemKufi-Bold, 'Reem Kufi';
        font-weight: 700;
      }

      .cls-4, .cls-5 {
        fill: #10086b;
      }

      .cls-3 {
        font-size: 288.12px;
        stroke: #10086b;
        stroke-width: 10px;
      }

      .cls-3, .cls-6 {
        stroke-miterlimit: 10;
      }

      .cls-7 {
        fill: #004fc4;
      }

      .cls-5 {
        font-family: DejaVuSans, 'DejaVu Sans';
        font-size: 308.94px;
        stroke-linecap: round;
        stroke-linejoin: round;
        stroke-width: .25px;
      }

      .cls-5, .cls-6 {
        stroke: #fff;
      }

      .cls-6 {
        fill: #f20026;
        stroke-width: .75px;
      }
    </style>
  </defs>
  <g id="Layer_1-2" data-name="Layer 1">
    <path class="cls-4" d="m1746.11,680.94H276.03L28.27,98.55l438.76,60.85L991.22,0l563.89,180.83,416.73-54.49-225.73,554.6Zm-1453.06-25.74h1435.74l202.53-497.61-378.56,49.52L991.02,26.98,469.1,185.68l-399.34-55.37,223.29,524.89Z"/>
    <polygon class="cls-7" points="985.39 51.39 473.56 212.48 112.63 161.5 310.43 636.63 1717.46 638.67 1905.06 177.81 1550.25 222.68 985.39 51.39"/>
    <path class="cls-1" d="m1734.77,664.45l-1441.54-2.1L71.49,129.7l399.9,56.47L985.26,24.45l567.2,171.99,393.06-49.69-210.75,517.7Zm-1407.17-53.54l1372.55,2,164.46-404.03-316.58,40.04L985.54,78.34l-509.8,160.45-321.98-45.48,173.85,417.6Z"/>
    <ellipse class="cls-6" cx="1000.06" cy="655.19" rx="225.33" ry="162.11"/>
    <text class="cls-5" transform="translate(879.22 762.18)"><tspan x="0" y="0">&amp;</tspan></text>
    <g>
      <path class="cls-4" d="m475.25,716.31v11.71c-4.55-2.17-8.85-3.8-12.89-4.87-4.04-1.07-7.94-1.6-11.71-1.6-6.54,0-11.58,1.27-15.12,3.8-3.55,2.53-5.32,6.14-5.32,10.81,0,3.92,1.18,6.88,3.54,8.89,2.35,2,6.82,3.61,13.39,4.84l7.25,1.49c8.95,1.7,15.56,4.71,19.81,9.01,4.27,4.29,6.39,10.04,6.39,17.26,0,8.59-2.88,15.12-8.65,19.55-5.75,4.43-14.2,6.66-25.34,6.66-4.2,0-8.66-.48-13.41-1.43-4.73-.95-9.63-2.35-14.7-4.22v-12.36c4.87,2.73,9.65,4.79,14.32,6.18,4.67,1.39,9.27,2.08,13.79,2.08,6.86,0,12.15-1.34,15.87-4.04,3.72-2.7,5.59-6.54,5.59-11.53,0-4.36-1.34-7.76-4.01-10.22-2.69-2.46-7.07-4.3-13.17-5.53l-7.31-1.43c-8.95-1.78-15.43-4.58-19.43-8.38-4.01-3.8-6-9.09-6-15.87,0-7.84,2.77-14.02,8.28-18.54,5.54-4.52,13.14-6.77,22.85-6.77,4.16,0,8.4.38,12.72,1.13,4.31.75,8.73,1.88,13.25,3.39Z"/>
      <path class="cls-4" d="m487.15,713.4h12v88.72h-12v-88.72Z"/>
      <path class="cls-4" d="m510.87,713.4h16.16l39.34,74.22v-74.22h11.65v88.72h-16.16l-39.34-74.22v74.22h-11.65v-88.72Z"/>
      <path class="cls-4" d="m656.17,720.24v12.66c-4.04-3.77-8.35-6.57-12.92-8.44-4.59-1.87-9.45-2.79-14.59-2.79-10.14,0-17.91,3.1-23.29,9.29-5.38,6.2-8.08,15.16-8.08,26.89s2.7,20.63,8.08,26.82c5.38,6.2,13.16,9.31,23.29,9.31,5.15,0,10.01-.93,14.59-2.79,4.56-1.87,8.88-4.67,12.92-8.44v12.54c-4.2,2.85-8.64,4.99-13.35,6.42-4.68,1.43-9.65,2.14-14.88,2.14-13.43,0-24.01-4.11-31.73-12.32-7.72-8.22-11.59-19.44-11.59-33.67s3.86-25.5,11.59-33.72c7.72-8.22,18.3-12.34,31.73-12.34,5.31,0,10.32.7,15,2.12,4.71,1.4,9.1,3.51,13.23,6.32Z"/>
      <path class="cls-4" d="m662.54,713.4h56.09v10.1h-44.09v26.26h42.25v10.1h-42.25v32.15h45.16v10.1h-57.16v-88.72Z"/>
    </g>
    <g>
      <path class="cls-4" d="m1285.23,792.55h20.74v-71.59l-22.56,4.53v-11.56l22.44-4.53h12.7v83.15h20.74v10.69h-54.05v-10.69Z"/>
      <path class="cls-4" d="m1352.44,801.29v-11.56c3.18,1.51,6.41,2.66,9.68,3.46,3.27.79,6.47,1.19,9.62,1.19,8.38,0,14.78-2.82,19.21-8.46,4.41-5.63,6.94-14.19,7.57-25.67-2.43,3.61-5.51,6.37-9.24,8.3s-7.86,2.89-12.38,2.89c-9.39,0-16.82-2.84-22.28-8.52-5.48-5.67-8.21-13.44-8.21-23.28s2.85-17.37,8.55-23.19c5.69-5.82,13.29-8.74,22.75-8.74,10.85,0,19.15,4.16,24.85,12.47,5.73,8.32,8.59,20.4,8.59,36.24,0,14.8-3.51,26.6-10.52,35.41-7.03,8.82-16.47,13.24-28.32,13.24-3.18,0-6.41-.31-9.68-.94-3.27-.63-6.66-1.57-10.18-2.83Zm25.27-39.79c5.69,0,10.22-1.95,13.54-5.85,3.34-3.9,5-9.24,5-16.03s-1.66-12.08-5-15.99c-3.32-3.92-7.84-5.88-13.54-5.88s-10.22,1.96-13.54,5.88c-3.34,3.91-5,9.24-5,15.99s1.66,12.13,5,16.03c3.32,3.9,7.84,5.85,13.54,5.85Z"/>
      <path class="cls-4" d="m1432.02,792.55h44.31v10.69h-59.58v-10.69c4.81-4.99,11.39-11.68,19.71-20.09,8.31-8.4,13.54-13.82,15.68-16.24,4.06-4.56,6.9-8.43,8.51-11.59,1.62-3.17,2.43-6.29,2.43-9.34,0-4.99-1.75-9.05-5.24-12.19-3.51-3.14-8.06-4.71-13.68-4.71-3.98,0-8.18.69-12.6,2.07-4.42,1.38-9.15,3.48-14.18,6.29v-12.82c5.12-2.05,9.89-3.61,14.33-4.65,4.44-1.04,8.51-1.57,12.19-1.57,9.72,0,17.47,2.43,23.26,7.29,5.78,4.86,8.67,11.35,8.67,19.48,0,3.86-.73,7.52-2.16,10.96-1.46,3.47-4.09,7.54-7.89,12.23-1.04,1.22-4.37,4.73-9.99,10.52-5.62,5.81-13.54,13.93-23.76,24.36Z"/>
      <path class="cls-4" d="m1490.49,801.29v-11.56c3.18,1.51,6.41,2.66,9.68,3.46,3.27.79,6.47,1.19,9.62,1.19,8.38,0,14.78-2.82,19.21-8.46,4.41-5.63,6.94-14.19,7.57-25.67-2.43,3.61-5.51,6.37-9.24,8.3-3.73,1.92-7.86,2.89-12.38,2.89-9.39,0-16.82-2.84-22.28-8.52-5.48-5.67-8.21-13.44-8.21-23.28s2.85-17.37,8.55-23.19c5.69-5.82,13.29-8.74,22.75-8.74,10.85,0,19.15,4.16,24.85,12.47,5.73,8.32,8.59,20.4,8.59,36.24,0,14.8-3.51,26.6-10.52,35.41-7.03,8.82-16.47,13.24-28.32,13.24-3.18,0-6.41-.31-9.68-.94-3.27-.63-6.66-1.57-10.18-2.83Zm25.27-39.79c5.69,0,10.22-1.95,13.54-5.85,3.34-3.9,5-9.24,5-16.03s-1.66-12.08-5-15.99c-3.32-3.92-7.84-5.88-13.54-5.88s-10.22,1.96-13.54,5.88c-3.34,3.91-5,9.24-5,15.99s1.66,12.13,5,16.03c3.32,3.9,7.84,5.85,13.54,5.85Z"/>
    </g>
    <polygon class="cls-4" points="1618.34 1048.54 381.78 1048.54 306.33 841.34 1693.79 841.34 1618.34 1048.54"/>
    <text class="cls-2" transform="translate(629.65 1018.66)"><tspan x="0" y="0">DELI</tspan></text>
    <text class="cls-3" transform="translate(189.75 697.65) rotate(-33.46)"><tspan x="0" y="0">D</tspan></text>
    <text class="cls-3" transform="translate(378.31 577.35) rotate(-26.96)"><tspan x="0" y="0">I</tspan></text>
    <text class="cls-3" transform="translate(464.54 529.93) rotate(-20.42)"><tspan x="0" y="0">X</tspan></text>
    <text class="cls-3" transform="translate(662.68 459.77) rotate(-13.62)"><tspan x="0" y="0">I</tspan></text>
    <text class="cls-3" transform="translate(757.61 434.07) rotate(-7.09)"><tspan x="0" y="0">E</tspan></text>
    <text class="cls-3" transform="translate(951.02 413.7) rotate(-1.87)"><tspan x="0" y="0"> </tspan></text>
    <text class="cls-3" transform="translate(994.14 412.45) rotate(-.16)"><tspan x="0" y="0"> </tspan></text>
    <text class="cls-3" transform="translate(1036.96 412.49) rotate(1.88)"><tspan x="0" y="0"> </tspan></text>
    <text class="cls-3" transform="translate(1077.35 410.09) rotate(7.27)"><tspan x="0" y="0">C</tspan></text>
    <text class="cls-3" transform="translate(1276.16 434.05) rotate(16.9)"><tspan x="0" y="0">H</tspan></text>
    <text class="cls-3" transform="translate(1498.72 506.28) rotate(24.1)"><tspan x="0" y="0">I</tspan></text>
    <text class="cls-3" transform="translate(1589.75 544.68) rotate(30.04)"><tspan x="0" y="0">L</tspan></text>
    <text class="cls-3" transform="translate(1750.36 640.26) rotate(35.76)"><tspan x="0" y="0">I</tspan></text>
  </g>
</svg>