<?xml version="1.0" encoding="UTF-8"?>
<svg id="Layer_2" data-name="Layer 2" xmlns="http://www.w3.org/2000/svg" viewBox="0 0 1518.4 21.09">
  <defs>
    <style>
      .cls-1 {
        fill: #10086b;
      }
    </style>
  </defs>
  <g id="Layer_1-2" data-name="Layer 1">
    <g>
      <g>
        <g>
          <rect class="cls-1" y="0" width="10.68" height="21.09"/>
          <rect class="cls-1" x="17.84" y="0" width="9.66" height="21.09"/>
          <rect class="cls-1" x="35.01" y="0" width="9.66" height="21.09"/>
          <rect class="cls-1" x="51.83" y="0" width="9.66" height="21.09"/>
          <rect class="cls-1" x="69.36" y="0" width="9.66" height="21.09"/>
          <rect class="cls-1" x="86.17" y="0" width="9.66" height="21.09"/>
          <rect class="cls-1" x="103.35" y="0" width="9.66" height="21.09"/>
          <rect class="cls-1" x="120.16" y="0" width="9.66" height="21.09"/>
          <rect class="cls-1" x="137.81" y="0" width="9.66" height="21.09"/>
          <rect class="cls-1" x="154.63" y="0" width="9.66" height="21.09"/>
          <rect class="cls-1" x="171.8" y="0" width="9.66" height="21.09"/>
          <rect class="cls-1" x="188.62" y="0" width="9.66" height="21.09"/>
          <rect class="cls-1" x="206.15" y="0" width="9.66" height="21.09"/>
          <rect class="cls-1" x="222.97" y="0" width="9.66" height="21.09"/>
          <rect class="cls-1" x="240.14" y="0" width="9.66" height="21.09"/>
          <rect class="cls-1" x="256.96" y="0" width="9.66" height="21.09"/>
          <rect class="cls-1" x="273.37" y="0" width="9.66" height="21.09"/>
          <rect class="cls-1" x="290.19" y="0" width="9.66" height="21.09"/>
          <rect class="cls-1" x="307.72" y="0" width="9.66" height="21.09"/>
          <rect class="cls-1" x="324.54" y="0" width="9.66" height="21.09"/>
          <rect class="cls-1" x="341.71" y="0" width="9.66" height="21.09"/>
          <rect class="cls-1" x="358.53" y="0" width="9.66" height="21.09"/>
        </g>
        <g>
          <rect class="cls-1" x="376.96" y="0" width="10.68" height="21.09"/>
          <rect class="cls-1" x="394.8" y="0" width="9.66" height="21.09"/>
          <rect class="cls-1" x="411.97" y="0" width="9.66" height="21.09"/>
          <rect class="cls-1" x="428.79" y="0" width="9.66" height="21.09"/>
          <rect class="cls-1" x="446.32" y="0" width="9.66" height="21.09"/>
          <rect class="cls-1" x="463.13" y="0" width="9.66" height="21.09"/>
          <rect class="cls-1" x="480.31" y="0" width="9.66" height="21.09"/>
          <rect class="cls-1" x="497.12" y="0" width="9.66" height="21.09"/>
          <rect class="cls-1" x="514.78" y="0" width="9.66" height="21.09"/>
          <rect class="cls-1" x="531.59" y="0" width="9.66" height="21.09"/>
          <rect class="cls-1" x="548.77" y="0" width="9.66" height="21.09"/>
          <rect class="cls-1" x="565.58" y="0" width="9.66" height="21.09"/>
          <rect class="cls-1" x="583.11" y="0" width="9.66" height="21.09"/>
          <rect class="cls-1" x="599.93" y="0" width="9.66" height="21.09"/>
          <rect class="cls-1" x="617.1" y="0" width="9.66" height="21.09"/>
          <rect class="cls-1" x="633.92" y="0" width="9.66" height="21.09"/>
          <rect class="cls-1" x="650.33" y="0" width="9.66" height="21.09"/>
          <rect class="cls-1" x="667.15" y="0" width="9.66" height="21.09"/>
          <rect class="cls-1" x="684.68" y="0" width="9.66" height="21.09"/>
          <rect class="cls-1" x="701.5" y="0" width="9.66" height="21.09"/>
          <rect class="cls-1" x="718.67" y="0" width="9.66" height="21.09"/>
          <rect class="cls-1" x="735.49" y="0" width="9.66" height="21.09"/>
        </g>
        <rect class="cls-1" x="754.44" y="0" width="10.68" height="21.09"/>
        <rect class="cls-1" x="772.28" y="0" width="9.66" height="21.09"/>
        <rect class="cls-1" x="789.45" y="0" width="9.66" height="21.09"/>
        <rect class="cls-1" x="806.27" y="0" width="9.66" height="21.09"/>
        <rect class="cls-1" x="823.8" y="0" width="9.66" height="21.09"/>
        <rect class="cls-1" x="840.62" y="0" width="9.66" height="21.09"/>
        <rect class="cls-1" x="857.79" y="0" width="9.66" height="21.09"/>
        <rect class="cls-1" x="874.61" y="0" width="9.66" height="21.09"/>
        <rect class="cls-1" x="892.26" y="0" width="9.66" height="21.09"/>
        <rect class="cls-1" x="909.08" y="0" width="9.66" height="21.09"/>
        <rect class="cls-1" x="926.25" y="0" width="9.66" height="21.09"/>
        <rect class="cls-1" x="943.06" y="0" width="9.66" height="21.09"/>
        <rect class="cls-1" x="960.6" y="0" width="9.66" height="21.09"/>
        <rect class="cls-1" x="977.41" y="0" width="9.66" height="21.09"/>
        <rect class="cls-1" x="994.59" y="0" width="9.66" height="21.09"/>
        <rect class="cls-1" x="1011.4" y="0" width="9.66" height="21.09"/>
        <rect class="cls-1" x="1027.82" y="0" width="9.66" height="21.09"/>
      </g>
      <g>
        <rect class="cls-1" x="1045.6" width="10.68" height="21.09"/>
        <rect class="cls-1" x="1063.44" width="9.66" height="21.09"/>
        <rect class="cls-1" x="1080.61" width="9.66" height="21.09"/>
        <rect class="cls-1" x="1097.43" width="9.66" height="21.09"/>
        <rect class="cls-1" x="1114.96" width="9.66" height="21.09"/>
        <rect class="cls-1" x="1131.77" width="9.66" height="21.09"/>
        <rect class="cls-1" x="1148.95" width="9.66" height="21.09"/>
        <rect class="cls-1" x="1165.76" width="9.66" height="21.09"/>
        <rect class="cls-1" x="1183.42" width="9.66" height="21.09"/>
        <rect class="cls-1" x="1200.23" width="9.66" height="21.09"/>
        <rect class="cls-1" x="1217.41" width="9.66" height="21.09"/>
        <rect class="cls-1" x="1234.22" width="9.66" height="21.09"/>
        <rect class="cls-1" x="1251.75" width="9.66" height="21.09"/>
        <rect class="cls-1" x="1268.57" width="9.66" height="21.09"/>
        <rect class="cls-1" x="1285.74" width="9.66" height="21.09"/>
        <rect class="cls-1" x="1302.56" width="9.66" height="21.09"/>
        <rect class="cls-1" x="1318.97" width="9.66" height="21.09"/>
        <rect class="cls-1" x="1335.79" width="9.66" height="21.09"/>
        <rect class="cls-1" x="1353.32" width="9.66" height="21.09"/>
        <rect class="cls-1" x="1370.14" width="9.66" height="21.09"/>
        <rect class="cls-1" x="1387.31" width="9.66" height="21.09"/>
        <rect class="cls-1" x="1404.13" width="9.66" height="21.09"/>
      </g>
      <rect class="cls-1" x="1422.56" width="10.68" height="21.09"/>
      <rect class="cls-1" x="1440.4" width="9.66" height="21.09"/>
      <rect class="cls-1" x="1457.57" width="9.66" height="21.09"/>
      <rect class="cls-1" x="1474.39" width="9.66" height="21.09"/>
      <rect class="cls-1" x="1491.92" width="9.66" height="21.09"/>
      <rect class="cls-1" x="1508.74" width="9.66" height="21.09"/>
    </g>
  </g>
</svg>