<?xml version="1.0" encoding="UTF-8"?>
<svg id="Layer_2" data-name="Layer 2" xmlns="http://www.w3.org/2000/svg" xmlns:xlink="http://www.w3.org/1999/xlink" viewBox="0 0 100.13 51.96">
  <defs>
    <style>
      .cls-1, .cls-2, .cls-3, .cls-4 {
        fill: #fff;
      }

      .cls-5, .cls-6 {
        fill: #10086b;
      }

      .cls-2 {
        font-size: 10.01px;
        letter-spacing: .4em;
      }

      .cls-2, .cls-3, .cls-4 {
        font-family: ReemKufi-Bold, 'Reem Kufi';
        font-weight: 700;
      }

      .cls-3, .cls-4 {
        font-size: 14px;
        stroke: #000;
      }

      .cls-3, .cls-4, .cls-7 {
        stroke-miterlimit: 10;
      }

      .cls-3, .cls-4, .cls-6 {
        stroke-width: .25px;
      }

      .cls-8 {
        fill: #004fc4;
      }

      .cls-4 {
        filter: url(#drop-shadow-1);
      }

      .cls-7 {
        fill: #f20026;
        stroke-width: .75px;
      }

      .cls-7, .cls-6 {
        stroke: #fff;
      }

      .cls-6 {
        font-family: DejaVuSans, 'DejaVu Sans';
        font-size: 15.01px;
        stroke-linecap: round;
        stroke-linejoin: round;
      }
    </style>
    <filter id="drop-shadow-1" filterUnits="userSpaceOnUse">
      <feOffset dx="-1.75" dy="0"/>
      <feGaussianBlur result="blur" stdDeviation="0"/>
      <feFlood flood-color="#10086b" flood-opacity="1"/>
      <feComposite in2="blur" operator="in"/>
      <feComposite in="SourceGraphic"/>
    </filter>
  </defs>
  <g id="Layer_1-2" data-name="Layer 1">
    <path class="cls-5" d="m86.6,33.09H15.16L3.12,4.79l21.32,2.96L49.91,0l27.4,8.79,20.25-2.65-10.97,26.95Zm-70.61-1.25h69.76l9.84-24.18-18.39,2.41L49.91,1.31l-25.36,7.71L5.14,6.33l10.85,25.51Z"/>
    <polygon class="cls-8" points="49.63 2.5 24.76 10.32 7.22 7.85 16.83 30.93 85.2 31.03 94.32 8.64 77.08 10.82 49.63 2.5"/>
    <path class="cls-1" d="m86.05,32.29l-70.05-.1L5.22,6.3l19.43,2.74L49.63,1.19l27.56,8.36,19.1-2.41-10.24,25.16Zm-68.38-2.6l66.69.1,7.99-19.63-15.38,1.95L49.64,3.81l-24.77,7.8-15.65-2.21,8.45,20.29Z"/>
    <ellipse class="cls-7" cx="50.34" cy="31.84" rx="10.95" ry="7.88"/>
    <text class="cls-6" transform="translate(44.47 37.04)"><tspan x="0" y="0">&amp;</tspan></text>
    <g>
      <path class="cls-5" d="m24.84,34.81v.57c-.22-.11-.43-.18-.63-.24s-.39-.08-.57-.08c-.32,0-.56.06-.73.18-.17.12-.26.3-.26.53,0,.19.06.33.17.43.11.1.33.18.65.24l.35.07c.43.08.76.23.96.44.21.21.31.49.31.84,0,.42-.14.73-.42.95-.28.22-.69.32-1.23.32-.2,0-.42-.02-.65-.07-.23-.05-.47-.11-.71-.21v-.6c.24.13.47.23.7.3s.45.1.67.1c.33,0,.59-.07.77-.2s.27-.32.27-.56c0-.21-.07-.38-.19-.5-.13-.12-.34-.21-.64-.27l-.36-.07c-.43-.09-.75-.22-.94-.41s-.29-.44-.29-.77c0-.38.13-.68.4-.9.27-.22.64-.33,1.11-.33.2,0,.41.02.62.05s.42.09.64.16Z"/>
      <path class="cls-5" d="m25.42,34.67h.58v4.31h-.58v-4.31Z"/>
      <path class="cls-5" d="m26.57,34.67h.79l1.91,3.61v-3.61h.57v4.31h-.79l-1.91-3.61v3.61h-.57v-4.31Z"/>
      <path class="cls-5" d="m33.63,35v.62c-.2-.18-.41-.32-.63-.41-.22-.09-.46-.14-.71-.14-.49,0-.87.15-1.13.45-.26.3-.39.74-.39,1.31s.13,1,.39,1.3c.26.3.64.45,1.13.45.25,0,.49-.05.71-.14.22-.09.43-.23.63-.41v.61c-.2.14-.42.24-.65.31-.23.07-.47.1-.72.1-.65,0-1.17-.2-1.54-.6-.38-.4-.56-.94-.56-1.64s.19-1.24.56-1.64c.38-.4.89-.6,1.54-.6.26,0,.5.03.73.1.23.07.44.17.64.31Z"/>
      <path class="cls-5" d="m33.94,34.67h2.73v.49h-2.14v1.28h2.05v.49h-2.05v1.56h2.19v.49h-2.78v-4.31Z"/>
    </g>
    <g>
      <path class="cls-5" d="m64.2,38.51h1.01v-3.48l-1.1.22v-.56l1.09-.22h.62v4.04h1.01v.52h-2.63v-.52Z"/>
      <path class="cls-5" d="m67.47,38.94v-.56c.15.07.31.13.47.17s.31.06.47.06c.41,0,.72-.14.93-.41.21-.27.34-.69.37-1.25-.12.18-.27.31-.45.4s-.38.14-.6.14c-.46,0-.82-.14-1.08-.41-.27-.28-.4-.65-.4-1.13s.14-.84.42-1.13.65-.42,1.11-.42c.53,0,.93.2,1.21.61.28.4.42.99.42,1.76,0,.72-.17,1.29-.51,1.72-.34.43-.8.64-1.38.64-.15,0-.31-.02-.47-.05s-.32-.08-.49-.14Zm1.23-1.93c.28,0,.5-.09.66-.28.16-.19.24-.45.24-.78s-.08-.59-.24-.78c-.16-.19-.38-.29-.66-.29s-.5.1-.66.29c-.16.19-.24.45-.24.78s.08.59.24.78c.16.19.38.28.66.28Z"/>
      <path class="cls-5" d="m71.33,38.51h2.15v.52h-2.9v-.52c.23-.24.55-.57.96-.98.4-.41.66-.67.76-.79.2-.22.34-.41.41-.56.08-.15.12-.31.12-.45,0-.24-.08-.44-.25-.59-.17-.15-.39-.23-.66-.23-.19,0-.4.03-.61.1-.22.07-.44.17-.69.31v-.62c.25-.1.48-.18.7-.23s.41-.08.59-.08c.47,0,.85.12,1.13.35s.42.55.42.95c0,.19-.04.37-.11.53-.07.17-.2.37-.38.59-.05.06-.21.23-.49.51-.27.28-.66.68-1.15,1.18Z"/>
      <path class="cls-5" d="m74.18,38.94v-.56c.15.07.31.13.47.17s.31.06.47.06c.41,0,.72-.14.93-.41.21-.27.34-.69.37-1.25-.12.18-.27.31-.45.4s-.38.14-.6.14c-.46,0-.82-.14-1.08-.41-.27-.28-.4-.65-.4-1.13s.14-.84.42-1.13.65-.42,1.11-.42c.53,0,.93.2,1.21.61.28.4.42.99.42,1.76,0,.72-.17,1.29-.51,1.72-.34.43-.8.64-1.38.64-.15,0-.31-.02-.47-.05s-.32-.08-.49-.14Zm1.23-1.93c.28,0,.5-.09.66-.28.16-.19.24-.45.24-.78s-.08-.59-.24-.78c-.16-.19-.38-.29-.66-.29s-.5.1-.66.29c-.16.19-.24.45-.24.78s.08.59.24.78c.16.19.38.28.66.28Z"/>
    </g>
    <polygon class="cls-5" points="80.39 50.95 20.3 50.95 16.63 40.88 84.05 40.88 80.39 50.95"/>
    <text class="cls-2" transform="translate(32.35 49.5)"><tspan x="0" y="0">DELI</tspan></text>
    <text class="cls-4" transform="translate(10.95 33.91) rotate(-33.47)"><tspan x="0" y="0">D</tspan></text>
    <text class="cls-3" transform="translate(20.11 28.06) rotate(-26.97)"><tspan x="0" y="0">I</tspan></text>
    <text class="cls-3" transform="translate(24.33 25.75) rotate(-20.41)"><tspan x="0" y="0">X</tspan></text>
    <text class="cls-3" transform="translate(33.95 22.34) rotate(-13.63)"><tspan x="0" y="0">I</tspan></text>
    <text class="cls-3" transform="translate(38.56 21.09) rotate(-7.09)"><tspan x="0" y="0">E</tspan></text>
    <text class="cls-3" transform="translate(47.95 20.1) rotate(-1.87)"><tspan x="0" y="0"> </tspan></text>
    <text class="cls-3" transform="translate(50.07 20.04) rotate(-.16)"><tspan x="0" y="0"> </tspan></text>
    <text class="cls-3" transform="translate(52.15 20.04) rotate(1.89)"><tspan x="0" y="0"> </tspan></text>
    <text class="cls-3" transform="translate(54.09 19.93) rotate(7.26)"><tspan x="0" y="0">C</tspan></text>
    <text class="cls-3" transform="translate(63.78 21.09) rotate(16.91)"><tspan x="0" y="0">H</tspan></text>
    <text class="cls-3" transform="translate(74.58 24.6) rotate(24.1)"><tspan x="0" y="0">I</tspan></text>
    <text class="cls-3" transform="translate(79.01 26.47) rotate(30.05)"><tspan x="0" y="0">L</tspan></text>
    <text class="cls-3" transform="translate(86.82 31.12) rotate(35.77)"><tspan x="0" y="0">I</tspan></text>
  </g>
</svg>