<?xml version="1.0" encoding="UTF-8"?>
<svg id="Layer_2" data-name="Layer 2" xmlns="http://www.w3.org/2000/svg" viewBox="0 0 361.5 21.17">
  <defs>
    <style>
      .cls-1 {
        fill: #10086b;
        stroke: #fff;
        stroke-miterlimit: 10;
        stroke-width: .5px;
      }
    </style>
  </defs>
  <g id="Layer_1-2" data-name="Layer 1">
    <g>
      <rect class="cls-1" x=".25" y=".25" width="10.47" height="20.67"/>
      <rect class="cls-1" x="17.74" y=".25" width="9.47" height="20.67"/>
      <rect class="cls-1" x="34.58" y=".25" width="9.47" height="20.67"/>
      <rect class="cls-1" x="51.06" y=".25" width="9.47" height="20.67"/>
      <rect class="cls-1" x="68.25" y=".25" width="9.47" height="20.67"/>
      <rect class="cls-1" x="84.74" y=".25" width="9.47" height="20.67"/>
      <rect class="cls-1" x="101.58" y=".25" width="9.47" height="20.67"/>
      <rect class="cls-1" x="118.07" y=".25" width="9.47" height="20.67"/>
      <rect class="cls-1" x="135.37" y=".25" width="9.47" height="20.67"/>
      <rect class="cls-1" x="151.86" y=".25" width="9.47" height="20.67"/>
      <rect class="cls-1" x="168.7" y=".25" width="9.47" height="20.67"/>
      <rect class="cls-1" x="185.19" y=".25" width="9.47" height="20.67"/>
      <rect class="cls-1" x="202.38" y=".25" width="9.47" height="20.67"/>
      <rect class="cls-1" x="218.86" y=".25" width="9.47" height="20.67"/>
      <rect class="cls-1" x="235.7" y=".25" width="9.47" height="20.67"/>
      <rect class="cls-1" x="252.19" y=".25" width="9.47" height="20.67"/>
      <rect class="cls-1" x="268.28" y=".25" width="9.47" height="20.67"/>
      <rect class="cls-1" x="284.77" y=".25" width="9.47" height="20.67"/>
      <rect class="cls-1" x="301.96" y=".25" width="9.47" height="20.67"/>
      <rect class="cls-1" x="318.45" y=".25" width="9.47" height="20.67"/>
      <rect class="cls-1" x="335.29" y=".25" width="9.47" height="20.67"/>
      <rect class="cls-1" x="351.78" y=".25" width="9.47" height="20.67"/>
    </g>
  </g>
</svg>